Results
version=1
nRows=12
nColumns=24
inDegrees=yes
endheader
time	pelvis_tilt	pelvis_list	pelvis_rotation	pelvis_tx	pelvis_ty	pelvis_tz	hip_flexion_r	hip_adduction_r	hip_rotation_r	knee_angle_r	ankle_angle_r	subtalar_angle_r	mtp_angle_r	hip_flexion_l	hip_adduction_l	hip_rotation_l	knee_angle_l	ankle_angle_l	subtalar_angle_l	mtp_angle_l	lumbar_extension	lumbar_bending	lumbar_rotation
      1.53766667	     -4.79213162	      2.10848102	     -4.21957703	      0.52784162	      1.07301896	      0.29787533	     24.01407637	     -5.29624016	     -6.28939547	    -64.16871464	      2.48437572	     -3.08683266	     10.33416392	      8.01525510	      4.45817704	      5.92238146	     -7.83309066	      4.10274995	     -3.81592036	      4.03560180	     -4.99513647	     -1.80338477	     -1.99010340
      1.54183333	     -4.79146755	      2.04066576	     -4.07417773	      0.53272489	      1.07340294	      0.29752107	     24.40443445	     -5.20567228	     -6.48507221	    -63.49248079	      2.77770914	     -2.96260638	     10.36574143	      7.50689613	      4.41534090	      6.16367481	     -7.37431301	      4.04472302	     -3.93132454	      4.03435649	     -5.00759737	     -1.71931414	     -2.14715956
      1.54600000	     -4.80568889	      1.96956215	     -3.93640713	      0.53761859	      1.07370371	      0.29717301	     24.80374008	     -5.11165676	     -6.67730973	    -62.79069109	      3.03378093	     -2.83517606	     10.38635613	      7.02916097	      4.36471025	      6.35844301	     -6.95161399	      4.07043617	     -3.98436503	      4.03449684	     -4.98502599	     -1.62100356	     -2.25658367
      1.55016667	     -4.83939918	      1.89825648	     -3.79632547	      0.54248443	      1.07393447	      0.29685804	     25.21403296	     -5.00989153	     -6.86130137	    -62.05798161	      3.29862859	     -2.76817067	     10.39821383	      6.59113280	      4.30682665	      6.51991965	     -6.56209060	      4.07404237	     -3.98180791	      4.03418202	     -4.95189002	     -1.54243878	     -2.33376889
      1.55433333	     -4.83690391	      1.82320891	     -3.66319726	      0.54734096	      1.07418694	      0.29654056	     25.57614901	     -4.90957971	     -7.04274179	    -61.29791207	      3.54267420	     -2.69761647	     10.40848953	      6.10379356	      4.24684585	      6.72117037	     -6.15113762	      4.08272734	     -4.05137244	      4.03333852	     -4.96266402	     -1.44626859	     -2.46076588
      1.55850000	     -4.85972561	      1.79208543	     -3.54453507	      0.55217582	      1.07431293	      0.29626363	     25.97956403	     -4.84847304	     -7.19007903	    -60.54811069	      3.78352112	     -2.66779775	     10.41687876	      5.63051719	      4.22960751	      6.99142320	     -5.70205750	      4.03410007	     -4.25660705	      4.02943059	     -4.94827221	     -1.38963851	     -2.63827217
      1.56266667	     -4.86430410	      1.73600017	     -3.42756350	      0.55700308	      1.07445012	      0.29599468	     26.34207452	     -4.76049281	     -7.34249004	    -59.75032505	      3.99150568	     -2.66070625	     10.41781555	      5.16835855	      4.18294426	      7.15726546	     -5.32331495	      4.07512033	     -4.30198388	      4.02886034	     -4.94318753	     -1.32019941	     -2.70843479
      1.56683333	     -4.91310407	      1.70359899	     -3.32382190	      0.56181640	      1.07443494	      0.29578890	     26.75854256	     -4.68453835	     -7.46579229	    -58.95359331	      4.22534451	     -2.70273411	     10.41828527	      4.77182108	      4.15173686	      7.25843254	     -4.97572525	      4.13226712	     -4.23285913	      4.03076214	     -4.89517060	     -1.28253164	     -2.73455011
      1.57100000	     -4.92718234	      1.64348457	     -3.20579990	      0.56660810	      1.07448009	      0.29554993	     27.11007005	     -4.58568665	     -7.60282216	    -58.10099588	      4.39506012	     -2.76166215	     10.40272594	      4.31678834	      4.09638977	      7.52508051	     -4.58659626	      4.11627787	     -4.44875825	      4.02849282	     -4.90140891	     -1.20233426	     -2.91778541
      1.57516667	     -4.97396283	      1.60105146	     -3.09955580	      0.57140735	      1.07440238	      0.29535002	     27.49722991	     -4.49932641	     -7.72171341	    -57.24368301	      4.59950336	     -2.83290940	     10.39543049	      3.93534528	      4.05357990	      7.63456463	     -4.27678076	      4.17978841	     -4.42745587	      4.03010941	     -4.84887135	     -1.16017389	     -2.93564049
      1.57933333	     -4.99395392	      1.56354515	     -3.00345275	      0.57619909	      1.07434024	      0.29517522	     27.84771303	     -4.41437584	     -7.82621713	    -56.36217416	      4.72832648	     -2.97715308	     10.37126495	      3.50446554	      4.01476009	      7.81759980	     -3.92322244	      4.22782433	     -4.52969263	      4.03073431	     -4.82920543	     -1.10859690	     -3.03258551
      1.58350000	     -5.04628004	      1.55287006	     -2.91775038	      0.58096075	      1.07413217	      0.29504566	     28.24262975	     -4.34984565	     -7.90469743	    -55.49335665	      4.94019304	     -3.08711280	     10.36336404	      3.13538209	      3.99951981	      7.91647834	     -3.61805048	      4.30460863	     -4.48177679	      4.03322561	     -4.79092376	     -1.10529595	     -3.05479145
